<svg xmlns="http://www.w3.org/2000/svg" id="_001-calendar" data-name="001-calendar" width="68.389" height="65.944" viewBox="0 0 68.389 65.944"><path id="Path_107" data-name="Path 107" d="M1,48.731a1,1,0,0,0,1-1V18.552h59.19V29.564a1,1,0,1,0,2,0V9.765a6.1,6.1,0,0,0-6.091-6.091H54.479V2.433A2.436,2.436,0,0,0,52.045,0H50.184a2.436,2.436,0,0,0-2.433,2.434V3.674H41.107V2.433A2.436,2.436,0,0,0,38.673,0H36.812a2.436,2.436,0,0,0-2.433,2.434V3.674H27.735V2.433A2.436,2.436,0,0,0,25.3,0H23.441a2.436,2.436,0,0,0-2.434,2.434V3.674H14.363V2.433A2.436,2.436,0,0,0,11.929,0H10.069A2.436,2.436,0,0,0,7.635,2.433V3.674H6.091A6.1,6.1,0,0,0,0,9.765V47.73a1,1,0,0,0,1,1Zm48.753-46.3a.431.431,0,0,1,.43-.43h1.861a.43.43,0,0,1,.429.43V7.3a.43.43,0,0,1-.429.43H50.185a.43.43,0,0,1-.43-.43Zm-13.372,0A.43.43,0,0,1,36.812,2h1.861a.431.431,0,0,1,.43.43V7.3a.431.431,0,0,1-.43.43H36.812a.43.43,0,0,1-.429-.43Zm-13.372,0a.431.431,0,0,1,.43-.43H25.3a.431.431,0,0,1,.43.43V7.3a.431.431,0,0,1-.43.43H23.441a.43.43,0,0,1-.43-.43Zm-13.372,0a.431.431,0,0,1,.43-.43H11.93a.43.43,0,0,1,.429.43V7.3a.43.43,0,0,1-.429.43H10.069a.43.43,0,0,1-.43-.43ZM6.091,5.678H7.635V7.3a2.436,2.436,0,0,0,2.434,2.434H11.93A2.436,2.436,0,0,0,14.363,7.3V5.678h6.645V7.3a2.436,2.436,0,0,0,2.433,2.434H25.3A2.436,2.436,0,0,0,27.735,7.3V5.678H34.38V7.3a2.436,2.436,0,0,0,2.434,2.434h1.861A2.436,2.436,0,0,0,41.107,7.3V5.678h6.644V7.3a2.436,2.436,0,0,0,2.434,2.434h1.861A2.436,2.436,0,0,0,54.479,7.3V5.678h2.627a4.092,4.092,0,0,1,4.088,4.088v6.783H2V9.765A4.092,4.092,0,0,1,6.091,5.678Zm0,0" transform="translate(0 0)" fill="#fff"></path><path id="Path_108" data-name="Path 108" d="M11.342,390.767H2.606a.6.6,0,0,1-.6-.6v-5.15a1,1,0,0,0-2,0v5.15a2.609,2.609,0,0,0,2.606,2.606h8.735a1,1,0,1,0,0-2Zm0,0" transform="translate(0 -332.719)" fill="#fff"></path><path id="Path_109" data-name="Path 109" d="M55.574,160.762H52.092a1,1,0,0,0,0,2h3.482a1,1,0,1,0,0-2Zm0,0" transform="translate(-44.266 -139.289)" fill="#fff"></path><path id="Path_110" data-name="Path 110" d="M132.209,162.766h3.482a1,1,0,0,0,0-2h-3.482a1,1,0,1,0,0,2Zm0,0" transform="translate(-113.681 -139.289)" fill="#fff"></path><path id="Path_111" data-name="Path 111" d="M212.326,162.766h3.482a1,1,0,1,0,0-2h-3.482a1,1,0,0,0,0,2Zm0,0" transform="translate(-183.097 -139.289)" fill="#fff"></path><path id="Path_112" data-name="Path 112" d="M292.44,162.766h3.482a1,1,0,1,0,0-2H292.44a1,1,0,0,0,0,2Zm0,0" transform="translate(-252.51 -139.289)" fill="#fff"></path><path id="Path_113" data-name="Path 113" d="M376.038,160.762h-3.482a1,1,0,1,0,0,2h3.482a1,1,0,1,0,0-2Zm0,0" transform="translate(-321.925 -139.289)" fill="#fff"></path><path id="Path_114" data-name="Path 114" d="M55.574,198.477H52.092a1,1,0,1,0,0,2h3.482a1,1,0,1,0,0-2Zm0,0" transform="translate(-44.266 -171.966)" fill="#fff"></path><path id="Path_115" data-name="Path 115" d="M132.209,200.481h3.482a1,1,0,1,0,0-2h-3.482a1,1,0,1,0,0,2Zm0,0" transform="translate(-113.681 -171.966)" fill="#fff"></path><path id="Path_116" data-name="Path 116" d="M212.326,200.481h3.482a1,1,0,1,0,0-2h-3.482a1,1,0,1,0,0,2Zm0,0" transform="translate(-183.097 -171.966)" fill="#fff"></path><path id="Path_117" data-name="Path 117" d="M292.44,200.481h3.482a1,1,0,1,0,0-2H292.44a1,1,0,0,0,0,2Zm0,0" transform="translate(-252.51 -171.966)" fill="#fff"></path><path id="Path_118" data-name="Path 118" d="M376.038,198.477h-3.482a1,1,0,1,0,0,2h3.482a1,1,0,1,0,0-2Zm0,0" transform="translate(-321.925 -171.966)" fill="#fff"></path><path id="Path_119" data-name="Path 119" d="M131.407,258.954l5.151,5.151a3.945,3.945,0,0,0,5.579,0L156.242,250a3.945,3.945,0,0,0-5.579-5.579l-11.316,11.316-2.362-2.361a3.945,3.945,0,1,0-5.579,5.579Zm1.417-4.163a1.944,1.944,0,0,1,2.746,0l3.07,3.07a1,1,0,0,0,1.417,0l12.025-12.024a1.941,1.941,0,1,1,2.746,2.746L140.72,262.688a1.941,1.941,0,0,1-2.746,0l-5.151-5.151a1.943,1.943,0,0,1,0-2.746Zm0,0" transform="translate(-112.855 -210.773)" fill="#fff"></path><path id="Path_120" data-name="Path 120" d="M159.878,257.007v-7.994a1,1,0,0,0-2,0v6.716a13.289,13.289,0,0,0-18.241,17.2H112.587a1,1,0,0,0,0,2h28.155a13.287,13.287,0,1,0,19.135-17.928Zm-8.1,21.818a11.287,11.287,0,1,1,11.287-11.287A11.3,11.3,0,0,1,151.779,278.825Zm0,0" transform="translate(-96.681 -214.884)" fill="#fff"></path><path id="Path_121" data-name="Path 121" d="M348.668,320.527a9.84,9.84,0,1,0,9.839,9.84A9.851,9.851,0,0,0,348.668,320.527Zm.9,17.623a1,1,0,0,0,.1-.444v-1.22a1,1,0,0,0-2,0v1.22a.992.992,0,0,0,.1.444,7.848,7.848,0,0,1-6.886-6.886.99.99,0,0,0,.444.1h1.22a1,1,0,1,0,0-2h-1.22a1,1,0,0,0-.444.1,7.848,7.848,0,0,1,6.886-6.886.992.992,0,0,0-.1.444v1.22a1,1,0,1,0,2,0v-1.22a1,1,0,0,0-.1-.444,7.848,7.848,0,0,1,6.886,6.886,1,1,0,0,0-.444-.1h-1.22a1,1,0,1,0,0,2h1.22a.992.992,0,0,0,.444-.1A7.849,7.849,0,0,1,349.565,338.15Zm0,0" transform="translate(-293.57 -277.714)" fill="#fff"></path><path id="Path_122" data-name="Path 122" d="M408.206,373.533H407v-1.027a1,1,0,1,0-2,0v2.029a1,1,0,0,0,1,1h2.208a1,1,0,0,0,0-2Zm0,0" transform="translate(-350.9 -321.881)" fill="#fff"></path></svg>