<svg xmlns="http://www.w3.org/2000/svg" id="_002-quality" data-name="002-quality" width="52.136" height="62.779" viewBox="0 0 52.136 62.779"><path id="Path_123" data-name="Path 123" d="M91.9,55.884,83.587,35.819a1,1,0,1,0-1.851.767l7.514,18.139L82.4,52.739a1,1,0,0,0-1.156.479L77.8,59.468,69.736,40a20.2,20.2,0,1,0-20.021-7.78l-9.8,23.659a1,1,0,0,0,1.2,1.346L49.2,54.886l4.061,7.374a1,1,0,0,0,.877.519H54.2a1,1,0,0,0,.87-.617l7.765-18.747a1,1,0,0,0-1.851-.767L54.014,59.468l-3.442-6.25a1,1,0,0,0-1.156-.479l-6.853,1.986,8.6-20.766A20.132,20.132,0,0,0,65.906,40.37c.6,0,1.193-.028,1.78-.079L76.745,62.16a1,1,0,0,0,.87.617l.056,0a1,1,0,0,0,.877-.519l4.061-7.374,8.086,2.343a1,1,0,0,0,1.2-1.346Zm-44.174-35.7A18.182,18.182,0,1,1,65.906,38.367,18.2,18.2,0,0,1,47.725,20.185Z" transform="translate(-39.838 0)" fill="#fff"></path><path id="Path_124" data-name="Path 124" d="M171.173,68.41a1,1,0,0,0-.787-.678L163.645,66.6l-3.159-6.061a1,1,0,0,0-1.777,0L155.55,66.6l-6.741,1.131a1,1,0,0,0-.549,1.69l4.789,4.877-1.007,6.761a1,1,0,0,0,1.437,1.044l6.119-3.047,6.118,3.047a1,1,0,0,0,1.437-1.044L166.147,74.3l4.789-4.878A1,1,0,0,0,171.173,68.41Zm-6.806,4.841a1,1,0,0,0-.276.849l.8,5.353-4.844-2.412a1,1,0,0,0-.893,0l-4.844,2.412.8-5.353a1,1,0,0,0-.276-.849l-3.791-3.862,5.337-.9a1,1,0,0,0,.723-.525l2.5-4.8,2.5,4.8a1,1,0,0,0,.723.525l5.337.9Z" transform="translate(-133.53 -51.986)" fill="#fff"></path><path id="Path_125" data-name="Path 125" d="M145.234,47.189a1,1,0,0,0-1.125.862,14.175,14.175,0,1,1,0-3.744,1,1,0,1,0,1.986-.263,16.177,16.177,0,1,0,0,4.27A1,1,0,0,0,145.234,47.189Z" transform="translate(-103.991 -25.993)" fill="#fff"></path></svg>