<svg xmlns="http://www.w3.org/2000/svg" id="_003-maintenance" data-name="003-maintenance" width="66.252" height="64.115" viewBox="0 0 66.252 64.115"><path id="Path_126" data-name="Path 126" d="M19.236,289.918a13.064,13.064,0,0,0-12.823,0,12.826,12.826,0,1,0,12.823,0Zm-.178,19.773L18.023,307.9l-1.851,1.069,1.033,1.79a10.712,10.712,0,0,1-3.313.864v-2.044H11.755v2.043a10.669,10.669,0,0,1-3.313-.864l1.033-1.79L7.623,307.9,6.589,309.69a10.592,10.592,0,0,1-2.43-2.43l1.793-1.034-1.069-1.851-1.793,1.035a10.626,10.626,0,0,1-.884-3.314H4.274v-2.137H2.207a10.627,10.627,0,0,1,.884-3.315l1.793,1.035,1.069-1.851-1.793-1.034a10.614,10.614,0,0,1,2.43-2.43l1.034,1.793,1.851-1.069L8.44,291.294a10.64,10.64,0,0,1,3.315-.884v2.068h2.137V290.41a10.627,10.627,0,0,1,3.315.884l-1.035,1.793,1.851,1.069,1.034-1.793a10.592,10.592,0,0,1,2.43,2.43l-1.793,1.034,1.069,1.851,1.793-1.035a10.633,10.633,0,0,1,.884,3.315H21.372V302.1h2.068a10.627,10.627,0,0,1-.884,3.315l-1.793-1.035-1.069,1.851,1.793,1.034a10.592,10.592,0,0,1-2.43,2.43Zm0,0" transform="translate(0 -249.735)" fill="#fff"></path><path id="Path_127" data-name="Path 127" d="M61.343,344a5.343,5.343,0,1,0,5.343,5.343A5.349,5.349,0,0,0,61.343,344Zm0,8.549a3.206,3.206,0,1,1,3.206-3.206A3.21,3.21,0,0,1,61.343,352.549Zm0,0" transform="translate(-48.52 -298.051)" fill="#fff"></path><path id="Path_128" data-name="Path 128" d="M88,376h2.137v2.137H88Zm0,0" transform="translate(-76.246 -325.777)" fill="#fff"></path><path id="Path_129" data-name="Path 129" d="M66.214,31.961c-.025-.248-.063-.5-.112-.744l-2.03-10.162A7.59,7.59,0,0,0,58.9,15.331a6.389,6.389,0,0,0,2.006-4.645V6.411a6.411,6.411,0,1,0-12.823,0H44.88V8.548h3.206v2.137A6.416,6.416,0,0,0,52.31,16.7l-9.677,9.677L32.86,24.82l-3.72-8.374L34.376,7.99a12.273,12.273,0,0,1,10.5-5.853V0A14.4,14.4,0,0,0,32.56,6.864l-9.292,15L7.48,6.91A9.051,9.051,0,0,0,1.069,4.274H0V43.113L1.852,41.12a14.82,14.82,0,0,1,10.971-4.788A14.928,14.928,0,0,1,27.286,47.456a14.8,14.8,0,0,1,.5,3.835V54.5H51.058l-.681,3.418a.273.273,0,0,1-.139.189l-2.97,1.487a2.368,2.368,0,0,0-1.319,2.13,2.4,2.4,0,0,0,2.394,2.394H64.115a2.139,2.139,0,0,0,2.137-2.137V32.7a7.149,7.149,0,0,0-.038-.737ZM52.81,56.634l.47-2.354A2.156,2.156,0,0,0,54.5,52.328l-.32-10.675a3.2,3.2,0,0,0-1.817-2.9V36.307a31.143,31.143,0,0,0,3.549-.319A88.306,88.306,0,0,1,57.7,53.664v2.97Zm5.2-21.03a31.552,31.552,0,0,0,6-1.884l.1-.043V56.634H59.84v-2.97A90.251,90.251,0,0,0,58.011,35.6Zm3.966-14.129,1.986,9.945-.795.339a29.473,29.473,0,0,1-6.611,1.962,28.9,28.9,0,0,1-4.426.436,9.712,9.712,0,0,0-.477-1.6,9.175,9.175,0,0,0-1.323-2.3l8.307-8.307a4.116,4.116,0,0,0,1.2-2.893,4.071,4.071,0,0,0-.131-.978,5.427,5.427,0,0,1,2.269,3.4ZM50.223,36.139v2.117l-9.617-1.749V34.194h9.353a7.427,7.427,0,0,1,.227,1.2,6.625,6.625,0,0,1,.037.747Zm6.089-18.954a1.886,1.886,0,0,1,.817.486,1.939,1.939,0,0,1,.574,1.382,1.971,1.971,0,0,1-.574,1.382l-8.3,8.3a9.446,9.446,0,0,0-3.655-1.871l9.193-9.193a1.906,1.906,0,0,1,1.945-.485ZM54.5,2.137a4.258,4.258,0,0,1,4.274,4.274H50.223A4.279,4.279,0,0,1,54.5,2.137Zm-4.274,8.549V8.549h8.549v2.137a4.274,4.274,0,1,1-8.549,0ZM27.777,18.647l2.564,5.771-5.27-.843-.218-.206ZM6.008,8.459,21.9,23.509H18.523L14.6,20.562,4.144,10.112A5.361,5.361,0,0,0,2.137,8.854V6.491a7.093,7.093,0,0,1,3.87,1.968ZM4.274,21.906a3.727,3.727,0,0,0,.044.534H2.137V11.226a3.256,3.256,0,0,1,.495.4l6.543,6.544H8.015a3.744,3.744,0,0,0-3.74,3.74Zm3.74-1.6h3.3l1.824,1.824,1.835,1.382H8.015a1.617,1.617,0,0,1-1.14-.472,1.154,1.154,0,0,1-.145-.172A1.6,1.6,0,0,1,8.015,20.3ZM2.137,37.948V24.577H5.4a3.719,3.719,0,0,0,2.617,1.069h9.057a26.81,26.81,0,0,1-1.82,8.74,17.443,17.443,0,0,0-2.429-.191A17.162,17.162,0,0,0,2.137,37.947Zm15.241-3.138a28.955,28.955,0,0,0,1.83-9.163h5.286l19.427,3.107A7.385,7.385,0,0,1,48.1,30.932a7.476,7.476,0,0,1,.9,1.125H38.469v6.235l12.661,2.3a1.078,1.078,0,0,1,.912,1.092l.127,4.264H29.06a17.234,17.234,0,0,0-11.681-11.14ZM29.618,48.086H52.232l.128,4.274H29.92V51.292a17.144,17.144,0,0,0-.3-3.206ZM48.086,61.721a.247.247,0,0,1,.136-.219l2.971-1.487a2.378,2.378,0,0,0,1.135-1.244h4.054l-1.635.819a2.369,2.369,0,0,0-1.317,2.13v.257H48.343a.248.248,0,0,1-.257-.257Zm7.48.257v-.257A.247.247,0,0,1,55.7,61.5l2.82-1.411a2.361,2.361,0,0,0,1.159-1.319h4.433v3.206H55.566Zm0,0" transform="translate(0 0)" fill="#fff"></path></svg>