<svg xmlns="http://www.w3.org/2000/svg" id="_004-contract" data-name="004-contract" width="64.125" height="64.115" viewBox="0 0 64.125 64.115"><path id="Path_130" data-name="Path 130" d="M230.428,98.394a3.208,3.208,0,0,0-5.877-.77l-.534.93a1.068,1.068,0,0,0-1.453.385l-2.714,4.626-.93-.534a1.068,1.068,0,1,0-1.069,1.849l.93.534-9.083,15.74-2.244,6-1.069,2a3.206,3.206,0,0,0,.171,3.462l-2.4,2.949-.673-1.688a2.137,2.137,0,0,0-3.815-.3l-.385.652-.363-4.274a2.137,2.137,0,0,0-4.157-.5l-2.629,7.886a1.068,1.068,0,0,0,.673,1.347.926.926,0,0,0,.331.085,1.068,1.068,0,0,0,1.015-.726l2.618-7.886.374,4.338a2.137,2.137,0,0,0,3.964.919l.4-.652.663,1.678a2.137,2.137,0,0,0,3.654.545l2.49-3.152a3.29,3.29,0,0,0,.844.107,3.206,3.206,0,0,0,2.789-1.582l1.069-1.784,4.071-4.947,9.179-15.933.93.534a1.071,1.071,0,0,1,.4,1.464l-4.274,7.405a1.061,1.061,0,1,0,1.806,1.111l4.274-7.405a3.2,3.2,0,0,0-1.176-4.381l-.93-.534,2.671-4.627a1.069,1.069,0,0,0-.385-1.453l.534-.93a3.2,3.2,0,0,0,.32-2.479Zm-4.029.3a1.069,1.069,0,0,1,.652-.5,1.122,1.122,0,0,1,.812.107,1.07,1.07,0,0,1,.5.652,1.122,1.122,0,0,1-.107.812l-.534.93-1.86-1.069Zm-14.565,29.835-.534-.31-1.581-.919,1.517-4.06,3.366,1.945Zm-3.206,3.088a1.068,1.068,0,0,1-.32-1.4l.534-.929,1.859,1.069-.534.919a1.068,1.068,0,0,1-1.539.342Zm7.191-8.185-3.7-2.137,8.549-14.811,3.7,2.137Zm9.617-16.659-3.7-2.137,2.137-3.7,3.7,2.137Zm0,0" transform="translate(-166.42 -83.199)" fill="#fff"></path><path id="Path_131" data-name="Path 131" d="M75.183,356.853,71.4,360.626l-2.266-2.266a1.069,1.069,0,1,0-1.507,1.517l2.265,2.266a2.154,2.154,0,0,0,3.024,0l3.772-3.783a1.069,1.069,0,0,0-1.507-1.507Zm0,0" transform="translate(-58.321 -308.97)" fill="#fff"></path><path id="Path_132" data-name="Path 132" d="M32,321.124a9.083,9.083,0,0,0,18.166,0,1.069,1.069,0,1,0-2.137,0,6.947,6.947,0,1,1-2.778-5.556,1.069,1.069,0,0,0,1.282-1.71A9.083,9.083,0,0,0,32,321.124Zm0,0" transform="translate(-27.726 -270.367)" fill="#fff"></path><path id="Path_133" data-name="Path 133" d="M100.852,50.176a1.069,1.069,0,0,0,0-2.137H73.069A1.069,1.069,0,0,0,72,49.108v4.274a1.068,1.068,0,0,0,1.069,1.069h27.783a1.069,1.069,0,0,0,0-2.137H74.137V50.176Zm0,0" transform="translate(-62.383 -41.628)" fill="#fff"></path><path id="Path_134" data-name="Path 134" d="M97.069,112.039a1.069,1.069,0,0,0,0,2.137H118.44a1.069,1.069,0,1,0,0-2.137Zm0,0" transform="translate(-83.177 -97.079)" fill="#fff"></path><path id="Path_135" data-name="Path 135" d="M152.577,168.039H129.069a1.069,1.069,0,1,0,0,2.137h23.509a1.069,1.069,0,0,0,0-2.137Zm0,0" transform="translate(-110.903 -145.599)" fill="#fff"></path><path id="Path_136" data-name="Path 136" d="M79.509,217.108a1.069,1.069,0,0,0-1.069-1.069H57.069a1.069,1.069,0,1,0,0,2.137H78.44A1.068,1.068,0,0,0,79.509,217.108Zm0,0" transform="translate(-48.52 -187.187)" fill="#fff"></path><path id="Path_137" data-name="Path 137" d="M256.549,216.039h-7.48a1.069,1.069,0,1,0,0,2.137h7.48a1.069,1.069,0,1,0,0-2.137Zm0,0" transform="translate(-214.874 -187.187)" fill="#fff"></path><path id="Path_138" data-name="Path 138" d="M67.754,258.176a1.069,1.069,0,1,0,0-2.137H57.069a1.069,1.069,0,1,0,0,2.137Zm0,0" transform="translate(-48.52 -221.845)" fill="#fff"></path><path id="Path_139" data-name="Path 139" d="M169.069,258.176h7.48a1.069,1.069,0,1,0,0-2.137h-7.48a1.069,1.069,0,1,0,0,2.137Zm0,0" transform="translate(-145.56 -221.845)" fill="#fff"></path><path id="Path_140" data-name="Path 140" d="M48.086,49.193a1.069,1.069,0,0,0-1.069,1.069V60.948a1.068,1.068,0,0,1-1.069,1.069H3.206a1.068,1.068,0,0,1-1.069-1.069V3.245A1.069,1.069,0,0,1,3.206,2.176H45.949a1.069,1.069,0,0,1,1.069,1.069V23.313a1.069,1.069,0,0,0,2.137,0V3.245A3.206,3.206,0,0,0,45.949.039H3.206A3.206,3.206,0,0,0,0,3.245v57.7a3.206,3.206,0,0,0,3.206,3.206H45.949a3.206,3.206,0,0,0,3.206-3.206V50.262A1.069,1.069,0,0,0,48.086,49.193Zm0,0" transform="translate(0 -0.039)" fill="#fff"></path></svg>