<svg xmlns="http://www.w3.org/2000/svg" width="70" height="70" viewBox="0 0 70 70"><g id="brake" transform="translate(-1 -1)"><path id="Path_1" data-name="Path 1" d="M32.387,35.774A3.387,3.387,0,1,0,29,32.387,3.391,3.391,0,0,0,32.387,35.774Zm0-4.516a1.129,1.129,0,1,1-1.129,1.129A1.131,1.131,0,0,1,32.387,31.258Z" transform="translate(3.613 3.613)" fill="#fff"></path><path id="Path_2" data-name="Path 2" d="M32.387,23.774A3.387,3.387,0,1,0,29,20.387,3.391,3.391,0,0,0,32.387,23.774Zm0-4.516a1.129,1.129,0,1,1-1.129,1.129A1.131,1.131,0,0,1,32.387,19.258Z" transform="translate(3.613 2.065)" fill="#fff"></path><path id="Path_3" data-name="Path 3" d="M20.3,29.32a3.388,3.388,0,1,0-1.578-2.057A3.366,3.366,0,0,0,20.3,29.32Zm.716-3.5a1.13,1.13,0,1,1-.112.857,1.13,1.13,0,0,1,.112-.857Z" transform="translate(2.272 2.839)" fill="#fff"></path><path id="Path_4" data-name="Path 4" d="M23.689,41.321A3.394,3.394,0,1,0,22,41.773,3.394,3.394,0,0,0,23.689,41.321Zm-2.671-2.37a1.129,1.129,0,1,1,1.543.413,1.13,1.13,0,0,1-1.543-.413Z" transform="translate(2.272 4.387)" fill="#fff"></path><path id="Path_5" data-name="Path 5" d="M32.387,41a3.387,3.387,0,1,0,3.387,3.387A3.391,3.391,0,0,0,32.387,41Zm0,4.516a1.129,1.129,0,1,1,1.129-1.129A1.13,1.13,0,0,1,32.387,45.516Z" transform="translate(3.613 5.161)" fill="#fff"></path><path id="Path_6" data-name="Path 6" d="M44.473,35.453a3.388,3.388,0,0,0-3.387,5.869h0a3.388,3.388,0,1,0,3.386-5.869Zm-.716,3.5a1.129,1.129,0,1,1-.413-1.542A1.129,1.129,0,0,1,43.757,38.951Z" transform="translate(4.954 4.387)" fill="#fff"></path><path id="Path_7" data-name="Path 7" d="M42.785,29.774a3.386,3.386,0,1,0-2.939-1.692A3.365,3.365,0,0,0,42.785,29.774Zm-.57-4.365a1.129,1.129,0,1,1-.412,1.542,1.12,1.12,0,0,1,.412-1.542Z" transform="translate(4.954 2.839)" fill="#fff"></path><path id="Path_8" data-name="Path 8" d="M32.9,40.806A7.9,7.9,0,1,0,25,32.9,7.913,7.913,0,0,0,32.9,40.806Zm0-13.548A5.645,5.645,0,1,1,27.258,32.9,5.652,5.652,0,0,1,32.9,27.258Z" transform="translate(3.097 3.097)" fill="#fff"></path><path id="Path_9" data-name="Path 9" d="M9,11h2.258v2.258H9Z" transform="translate(1.032 1.29)" fill="#fff"></path><path id="Path_10" data-name="Path 10" d="M9,15h2.258v2.258H9Z" transform="translate(1.032 1.806)" fill="#fff"></path><path id="Path_11" data-name="Path 11" d="M9,19h2.258v2.258H9Z" transform="translate(1.032 2.323)" fill="#fff"></path><path id="Path_12" data-name="Path 12" d="M9,51h2.258v2.258H9Z" transform="translate(1.032 6.452)" fill="#fff"></path><path id="Path_13" data-name="Path 13" d="M9,47h2.258v2.258H9Z" transform="translate(1.032 5.935)" fill="#fff"></path><path id="Path_14" data-name="Path 14" d="M9,43h2.258v2.258H9Z" transform="translate(1.032 5.419)" fill="#fff"></path><circle id="Ellipse_9" data-name="Ellipse 9" cx="1" cy="1" r="1" transform="translate(6 40)" fill="#fff"></circle><circle id="Ellipse_10" data-name="Ellipse 10" cx="1" cy="1" r="1" transform="translate(6 30)" fill="#fff"></circle><path id="Path_15" data-name="Path 15" d="M36,1A34.664,34.664,0,0,0,16.806,6.752V5.516H10.557L9.421,7.22A36.563,36.563,0,0,0,3.28,26.979,5.592,5.592,0,0,0,3.293,36a5.592,5.592,0,0,0-.014,9.021A36.563,36.563,0,0,0,9.421,64.78l1.136,1.7h6.249V65.248A34.666,34.666,0,0,0,36,71,35,35,0,0,0,36,1ZM3.258,31.484a3.387,3.387,0,1,1,3.387,3.387A3.391,3.391,0,0,1,3.258,31.484Zm3.387,5.645a3.387,3.387,0,1,1-3.387,3.387A3.391,3.391,0,0,1,6.645,37.129Zm7.9,27.1H11.765l-.465-.7A34.3,34.3,0,0,1,5.576,46.053a5.565,5.565,0,0,0,1.069.108A5.628,5.628,0,0,0,10,36,5.628,5.628,0,0,0,6.645,25.839a5.565,5.565,0,0,0-1.069.108A34.311,34.311,0,0,1,11.3,8.472l.465-.7h2.783ZM36,68.742a32.446,32.446,0,0,1-19.194-6.237V45.522a21.452,21.452,0,1,0,0-19.045V9.494A32.442,32.442,0,0,1,36,3.258a32.742,32.742,0,1,1,0,65.484ZM16.806,36A19.194,19.194,0,1,1,36,55.194,19.215,19.215,0,0,1,16.806,36Z" transform="translate(0 0)" fill="#fff"></path><path id="Path_16" data-name="Path 16" d="M0,0H2.258V2.258H0Z" transform="translate(33.869 62.569) rotate(-45)" fill="#fff"></path><path id="Path_17" data-name="Path 17" d="M0,0H2.258V2.258H0Z" transform="translate(30.676 59.377) rotate(-45)" fill="#fff"></path><path id="Path_18" data-name="Path 18" d="M0,0H2.258V2.258H0Z" transform="translate(37.058 65.776) rotate(-45)" fill="#fff"></path><path id="Path_19" data-name="Path 19" d="M0,0H2.258V2.258H0Z" transform="translate(51.827 61.254) rotate(-74.991)" fill="#fff"></path><path id="Path_20" data-name="Path 20" d="M0,0H2.258V2.258H0Z" transform="translate(47.448 60.047) rotate(-74.991)" fill="#fff"></path><path id="Path_21" data-name="Path 21" d="M0,0H2.258V2.258H0Z" transform="translate(43.1 58.911) rotate(-74.991)" fill="#fff"></path><path id="Path_22" data-name="Path 22" d="M0,0H2.258V2.258H0Z" transform="translate(53.017 50.105) rotate(-15.009)" fill="#fff"></path><path id="Path_23" data-name="Path 23" d="M0,0H2.258V2.258H0Z" transform="translate(61.744 47.765) rotate(-15.009)" fill="#fff"></path><path id="Path_24" data-name="Path 24" d="M0,0H2.258V2.258H0Z" transform="translate(57.38 48.935) rotate(-15.009)" fill="#fff"></path><path id="Path_25" data-name="Path 25" d="M0,0H2.258V2.258H0Z" transform="translate(60.966 36.527) rotate(-45)" fill="#fff"></path><path id="Path_26" data-name="Path 26" d="M0,0H2.258V2.258H0Z" transform="translate(57.772 39.72) rotate(-45)" fill="#fff"></path><path id="Path_27" data-name="Path 27" d="M0,0H2.258V2.258H0Z" transform="translate(64.159 33.335) rotate(-45)" fill="#fff"></path><path id="Path_28" data-name="Path 28" d="M0,0H2.258V2.258H0Z" transform="translate(57.879 23.948) rotate(-74.991)" fill="#fff"></path><path id="Path_29" data-name="Path 29" d="M0,0H2.258V2.258H0Z" transform="translate(59.073 19.603) rotate(-74.991)" fill="#fff"></path><path id="Path_30" data-name="Path 30" d="M0,0H2.258V2.258H0Z" transform="translate(56.735 28.329) rotate(-74.991)" fill="#fff"></path><path id="Path_31" data-name="Path 31" d="M0,0H2.258V2.258H0Z" transform="translate(48.363 12.444) rotate(-15.009)" fill="#fff"></path><path id="Path_32" data-name="Path 32" d="M0,0H2.258V2.258H0Z" transform="translate(47.194 8.081) rotate(-15.009)" fill="#fff"></path><path id="Path_33" data-name="Path 33" d="M0,0H2.258V2.258H0Z" transform="translate(49.533 16.806) rotate(-15.009)" fill="#fff"></path><path id="Path_34" data-name="Path 34" d="M0,0H2.258V2.258H0Z" transform="translate(38.116 12.625) rotate(-45)" fill="#fff"></path><path id="Path_35" data-name="Path 35" d="M0,0H2.258V2.258H0Z" transform="translate(31.73 6.238) rotate(-45)" fill="#fff"></path><path id="Path_36" data-name="Path 36" d="M0,0H2.258V2.258H0Z" transform="translate(34.922 9.43) rotate(-45)" fill="#fff"></path><path id="Path_37" data-name="Path 37" d="M0,0H2.258V2.258H0Z" transform="translate(17.427 12.355) rotate(-74.991)" fill="#fff"></path><path id="Path_38" data-name="Path 38" d="M0,0H2.258V2.258H0Z" transform="translate(21.786 13.52) rotate(-74.991)" fill="#fff"></path><path id="Path_39" data-name="Path 39" d="M0,0H2.258V2.258H0Z" transform="translate(26.153 14.694) rotate(-74.991)" fill="#fff"></path><path id="Path_40" data-name="Path 40" d="M0,0H2.258V2.259H0Z" transform="translate(20.889 57.952) rotate(-15.009)" fill="#fff"></path><path id="Path_41" data-name="Path 41" d="M0,0H2.258V2.258H0Z" transform="translate(19.719 53.59) rotate(-15.009)" fill="#fff"></path><path id="Path_42" data-name="Path 42" d="M0,0H2.258V2.258H0Z" transform="translate(22.059 62.315) rotate(-15.009)" fill="#fff"></path></g></svg>