<svg xmlns="http://www.w3.org/2000/svg" width="98.125" height="78.5" viewBox="0 0 98.125 78.5"><path id="Icon_awesome-car-alt" data-name="Icon awesome-car-alt" d="M89.674,34.823l-2.3-5.744L83.3,18.892A22.785,22.785,0,0,0,62.043,4.5H36.081A22.787,22.787,0,0,0,14.823,18.892L10.749,29.078l-2.3,5.744A13.055,13.055,0,0,0,0,47.021v9.812A12.977,12.977,0,0,0,3.271,65.4V76.458A6.542,6.542,0,0,0,9.812,83h6.542A6.542,6.542,0,0,0,22.9,76.458V69.916H75.229v6.542A6.542,6.542,0,0,0,81.771,83h6.542a6.542,6.542,0,0,0,6.542-6.542V65.4a12.969,12.969,0,0,0,3.271-8.572V47.021A13.055,13.055,0,0,0,89.674,34.823ZM26.97,23.751a9.813,9.813,0,0,1,9.111-6.168H62.043a9.813,9.813,0,0,1,9.111,6.168l4.074,10.187H22.9L26.97,23.751ZM16.354,56.792a6.171,6.171,0,0,1-6.542-6.521,6.171,6.171,0,0,1,6.542-6.521c3.925,0,9.812,5.869,9.812,9.782S20.279,56.792,16.354,56.792Zm65.416,0c-3.925,0-9.812.652-9.812-3.261s5.887-9.782,9.812-9.782a6.171,6.171,0,0,1,6.542,6.521,6.171,6.171,0,0,1-6.542,6.521Z" transform="translate(0 -4.5)" fill="#dfdfdf"></path></svg>