<svg xmlns="http://www.w3.org/2000/svg" width="165.029" height="165.029" viewBox="0 0 165.029 165.029"><path id="Icon_awesome-ticket-alt" data-name="Icon awesome-ticket-alt" d="M31.118,70.016h77.8V23.339h-77.8Zm97.244-23.339a11.669,11.669,0,0,1,11.669-11.669V11.669A11.669,11.669,0,0,0,128.363,0H11.669A11.669,11.669,0,0,0,0,11.669V35.008A11.669,11.669,0,0,1,11.669,46.677,11.669,11.669,0,0,1,0,58.347V81.685A11.669,11.669,0,0,0,11.669,93.355H128.363a11.669,11.669,0,0,0,11.669-11.669V58.347A11.669,11.669,0,0,1,128.363,46.677ZM116.693,71.961a5.835,5.835,0,0,1-5.835,5.835H29.173a5.835,5.835,0,0,1-5.835-5.835V21.394a5.835,5.835,0,0,1,5.835-5.835h81.685a5.835,5.835,0,0,1,5.835,5.835Z" transform="translate(165.029 66.012) rotate(135)" fill="#606060" opacity="0.38"></path></svg>