<svg xmlns="http://www.w3.org/2000/svg" width="113.975" height="113.975" viewBox="0 0 113.975 113.975"><path id="Icon_awesome-phone-alt" data-name="Icon awesome-phone-alt" d="M3.251,80.539,28.183,69.854a5.343,5.343,0,0,1,6.233,1.536L45.458,84.88A82.513,82.513,0,0,0,84.9,45.436L71.412,34.395a5.329,5.329,0,0,1-1.536-6.233L80.561,3.229A5.378,5.378,0,0,1,86.683.135l23.151,5.343a5.343,5.343,0,0,1,4.141,5.207A103.28,103.28,0,0,1,10.684,113.975a5.343,5.343,0,0,1-5.209-4.141L.132,86.683a5.407,5.407,0,0,1,3.119-6.144Z" transform="translate(0 0)" fill="#dfdfdf"></path></svg>