<svg xmlns="http://www.w3.org/2000/svg" id="Logo_1_line" data-name="Logo 1 line" width="218.411" height="65.477" viewBox="0 0 218.411 65.477"><g id="Group_35" data-name="Group 35"><path id="Path_141" data-name="Path 141" d="M28.43,21.807a33.685,33.685,0,0,1,5.91-.6H44.965a34.694,34.694,0,0,1,5.91.6V19.151h.93L51.473,15.1H27.832L27.5,19.151h.93Z" transform="translate(-9.238 -5.073)" fill="#fff"></path><path id="Path_142" data-name="Path 142" d="M49.41,26.032c-2.324-.133-9.3-.332-9.3-.332H38.386s-6.973.133-9.3.332S26.3,27.559,26.3,27.559l.332-.133L26.366,33.2a.665.665,0,0,0,.664.664l10.824-.531a.6.6,0,0,0,.6-.6v-5.91h1.727v5.91a.6.6,0,0,0,.6.6l10.758.531A.665.665,0,0,0,52.2,33.2l-.266-5.844.332.133A3.312,3.312,0,0,0,49.41,26.032Z" transform="translate(-8.835 -8.633)" fill="#fff"></path><path id="Path_143" data-name="Path 143" d="M35.486,48.322H55.939a3,3,0,0,0-.332-1.063,3.676,3.676,0,0,0-1.527-1.395L48.037,46l-.93,1.527.465-2.457h6.641c.73,0,.332-3.254.332-4.98s-3.586-1.859-3.586-1.859V31.588a.672.672,0,0,1,.465-.133,12.639,12.639,0,0,1,1.859.465c.465.133.465-.133.465-.133V30.724h.6l-.133-6.176h-.73s-.6-.93-1.063-1.063a8.4,8.4,0,0,0-1.859,0l-.332-4.648-.6-.133L49.3,11.6H48.037l.332,7.3h-.8V21.1a1.779,1.779,0,0,1,.93.465c.6.465.8,1.992.8,1.992h-.465l.332,7.106a2.181,2.181,0,0,0,.332.93c.332.6.465,6.508.465,6.508H47.638l-.133-5.18a12.594,12.594,0,0,1,.6,2.324c.133,1.063.2,2.391.2,2.391l.8-.332-.465-4.781a3.036,3.036,0,0,0-3.121-2.789c-2.723-.133-9.031-.266-10.094-.332h-.133c-1.063,0-7.371.133-10.094.332a3.1,3.1,0,0,0-3.121,2.789L21.607,37.3l.8.332s.066-1.328.2-2.391a12.594,12.594,0,0,1,.6-2.324l-.066,5.18H20.943s.133-5.91.465-6.508a2.181,2.181,0,0,0,.332-.93l.332-7.106-.465-.2s.133-1.527.8-1.992a1.779,1.779,0,0,1,.93-.465V18.7h-.8l.332-7.3H21.607l-.332,7.106-.6.133-.332,4.648a8.4,8.4,0,0,0-1.859,0c-.465.133-1.063,1.063-1.063,1.063h-.8l-.133,6.176h.6v1.2s0,.332.465.133a12.639,12.639,0,0,1,1.859-.465.672.672,0,0,1,.465.133v6.641s-3.586.133-3.586,1.859S15.83,45,16.627,45h6.641l.465,2.457-.93-1.527L16.759,45.8s-1.262.6-1.527,1.395a3.494,3.494,0,0,0-.332,1.063H35.486Zm16.469-24.5a.9.9,0,0,1,.6.465v.332h-.332l.332,5.91.6.332-.133.465a9.164,9.164,0,0,0-1.527-.6.905.905,0,0,0-.6.332l-.133-6.84A1.457,1.457,0,0,1,51.955,23.818ZM47.107,40.885a.767.767,0,0,1,.8-.8h4.781a.767.767,0,0,1,.8.8v1.992a.767.767,0,0,1-.8.8H47.9a.767.767,0,0,1-.8-.8V40.885Zm-20.121-9.3H43.853a1.5,1.5,0,0,1,1.527,1.527H25.459A1.5,1.5,0,0,1,26.986,31.588Zm0,2.457H43.853a1.5,1.5,0,0,1,1.527,1.527H25.459A1.545,1.545,0,0,1,26.986,34.045Zm0,2.457H43.853a1.5,1.5,0,0,1,1.527,1.527H25.459A1.545,1.545,0,0,1,26.986,36.5Zm0,2.523H43.853a1.5,1.5,0,0,1,1.527,1.527H25.459A1.5,1.5,0,0,1,26.986,39.025Zm18.129,4.648v.465H40.931v-.465Zm-5.113,0v.465H35.818v-.465Zm-4.98,0v.465H30.838v-.465Zm-5.113,0v.465H25.724v-.465ZM19.416,30.658a7.286,7.286,0,0,0-1.527.6l-.133-.465.6-.332.332-5.91h-.332v-.332a.9.9,0,0,1,.6-.465c.465-.133,1.262.332,1.262.332l-.133,6.84C20.013,30.99,19.748,30.658,19.416,30.658Zm4.316,12.219a.767.767,0,0,1-.8.8H18.154a.767.767,0,0,1-.8-.8V40.885a.767.767,0,0,1,.8-.8h4.781a.767.767,0,0,1,.8.8Zm2.059,3.586s-.93-.133-1.063-.6a3.208,3.208,0,0,1-.133-.8H46.377a3.208,3.208,0,0,1-.133.8c-.133.465-1.063.6-1.063.6H25.791Z" transform="translate(-5.005 -3.83)" fill="#fff"></path><path id="Path_144" data-name="Path 144" d="M57.309,79.258C55.782,78.793,50.469,78,50.469,78V71.953a4.969,4.969,0,0,0,.465-1.262,11.458,11.458,0,0,0,0-2.191h-7.9L42.7,72.352h-.6V68.633H35v2.922H25.832V68.633H18.727v3.719h-.6L17.8,68.5h-7.9a11.458,11.458,0,0,0,0,2.191,4.969,4.969,0,0,0,.465,1.262V78s-5.246.8-6.84,1.262S0,80.32,0,80.32s19.656-1.395,24.9-1.395H35.926c5.246,0,24.9,1.395,24.9,1.395S58.836,79.723,57.309,79.258ZM44.16,77.4s-7.3-.465-13.613-.465h-.133c-6.309,0-13.613.465-13.613.465V74.145H44.16Z" transform="translate(0 -23.011)" fill="#fff"></path><g id="Group_34" data-name="Group 34" transform="translate(3.122)"><path id="Path_145" data-name="Path 145" d="M59.353,7.57V7.039L32.06,0,4.833,6.973V7.5c-.066.863-1.2,21.582,4.582,33.668.266.531.465,1,.73,1.461a5.039,5.039,0,0,1,1-1.527,6.171,6.171,0,0,1-.332-.664C5.763,29.883,6.228,11.621,6.361,8.234L32.127,1.594,57.892,8.234c.133,3.453.6,21.649-4.449,32.34-.133.2-.2.465-.332.664a5.039,5.039,0,0,1,1,1.527c.266-.465.465-1,.73-1.461C60.549,29.153,59.42,8.434,59.353,7.57ZM40.826,57.907q-1.1.9-1.793,1.395a67.427,67.427,0,0,1-6.973,4.383A67.427,67.427,0,0,1,25.087,59.3q-.7-.5-1.793-1.395c-.531,0-1.395.066-2.258.066,1.129,1,2.125,1.859,3.121,2.59,3.121,2.324,7.371,4.582,7.5,4.715l.4.2.4-.2a60.516,60.516,0,0,0,7.5-4.715,33.818,33.818,0,0,0,3.121-2.59C42.353,57.973,41.556,57.973,40.826,57.907Z" transform="translate(-4.702)" fill="#fff"></path></g></g><g id="Group_38" data-name="Group 38" transform="translate(70.657 16.203)"><g id="Group_36" data-name="Group 36"><path id="Path_146" data-name="Path 146" d="M120.744,27.159h-5.977V48.077h-2.324V27.159H106.4V25.1h14.344Z" transform="translate(-106.4 -24.635)" fill="#fff"></path><path id="Path_147" data-name="Path 147" d="M135.909,34.8h.465v2.324h-.4a3.472,3.472,0,0,0-2.922,1.395c-1.063,1.262-1.262,3.121-1.262,4.98v7.836H129.6v-16.2h2.059v3.852C132.256,36.659,133.584,34.8,135.909,34.8Z" transform="translate(-114.194 -27.894)" fill="#fff"></path><path id="Path_148" data-name="Path 148" d="M143.8,46.324V35.3h2.191V46.191c0,2.59,1.129,3.785,2.855,3.785,2.258,0,3.586-2.125,3.586-5.246V35.3h2.191V51.5h-2.059V48.449a4.456,4.456,0,0,1-4.316,3.453C144.863,51.9,143.8,49.577,143.8,46.324Z" transform="translate(-118.964 -28.062)" fill="#fff"></path><path id="Path_149" data-name="Path 149" d="M166,43.2c0-5.645,1.992-8.5,6.043-8.5,3.188,0,5.246,1.992,5.379,5.91l-2.258.2c-.133-2.855-1.262-4.25-3.188-4.25-2.324,0-3.652,1.727-3.652,6.641,0,4.781,1.395,6.574,3.785,6.574,1.859,0,3.055-1.395,3.121-4.383l2.258.332c-.2,3.852-2.324,5.91-5.379,5.91C168.191,51.7,166,49.044,166,43.2Z" transform="translate(-126.422 -27.86)" fill="#fff"></path><path id="Path_150" data-name="Path 150" d="M193.781,39.541l-2.59,3.055v5.246H189V24.4h2.191V39.939l6.375-8.234h2.656l-4.98,6.043,5.18,10.16h-2.59Z" transform="translate(-134.148 -24.4)" fill="#fff"></path></g><g id="Group_37" data-name="Group 37" transform="translate(73.512 0.598)"><path id="Path_151" data-name="Path 151" d="M217.1,25.3h6.109c4.781,0,7.371,2.723,7.371,7.9v6.773c0,5.379-2.523,8.234-7.438,8.234H217.1Zm5.844,19.723c1.992,0,2.922-1.66,2.922-4.648v-7.3c0-3.055-.863-4.449-2.922-4.449h-1.395v16.4Z" transform="translate(-217.1 -25.3)" fill="#fff"></path><path id="Path_152" data-name="Path 152" d="M240.1,45.824V41.109c0-3.984,2.258-6.109,5.977-6.109,3.785,0,6.043,2.125,6.043,6.109v4.715c0,3.984-2.258,6.109-6.043,6.109C242.424,51.934,240.1,49.875,240.1,45.824Zm7.637.465V40.645c0-1.926-.531-2.656-1.594-2.656s-1.527.8-1.527,2.656v5.645c0,1.926.531,2.656,1.527,2.656C247.206,48.945,247.737,48.215,247.737,46.289Z" transform="translate(-224.827 -28.559)" fill="#fff"></path><path id="Path_153" data-name="Path 153" d="M261.3,45.957V41.176c0-4.117,2.125-6.176,5.977-6.176,3.652,0,5.645,1.66,5.645,5.18v1.063l-4.25.664V40.445c0-1.66-.465-2.324-1.395-2.324-1,0-1.461.73-1.461,2.59v5.445c0,1.926.465,2.723,1.461,2.723.93,0,1.395-.73,1.395-2.457V44.828l4.25.8v1.063c0,3.387-2.191,5.313-5.645,5.313C263.558,51.934,261.3,49.742,261.3,45.957Z" transform="translate(-231.948 -28.559)" fill="#fff"></path><path id="Path_154" data-name="Path 154" d="M279.866,33.013h1.926V29.295l4.25-1.395v5.113H288.7v2.922h-2.656V43.7c0,1.262.465,1.926,1.66,1.926a5.368,5.368,0,0,0,1.063-.066V49.15a11.726,11.726,0,0,1-2.457.2c-3.188,0-4.582-1.461-4.582-4.582V35.935H279.8V33.013Z" transform="translate(-238.163 -26.173)" fill="#fff"></path><path id="Path_155" data-name="Path 155" d="M295.1,45.824V41.109c0-3.984,2.258-6.109,5.977-6.109,3.785,0,6.043,2.125,6.043,6.109v4.715c0,3.984-2.258,6.109-6.043,6.109C297.358,51.934,295.1,49.875,295.1,45.824Zm7.57.465V40.645c0-1.926-.531-2.656-1.594-2.656s-1.527.8-1.527,2.656v5.645c0,1.926.531,2.656,1.527,2.656C302.139,48.945,302.67,48.215,302.67,46.289Z" transform="translate(-243.303 -28.559)" fill="#fff"></path><path id="Path_156" data-name="Path 156" d="M324.57,35.1h.266v4.582a4.4,4.4,0,0,0-1-.066,2.418,2.418,0,0,0-2.125,1.063,5.149,5.149,0,0,0-.664,2.922v8.1H316.8V35.432h3.918v3.586C321.183,36.893,322.312,35.1,324.57,35.1Z" transform="translate(-250.593 -28.592)" fill="#fff"></path></g></g><g id="Group_39" data-name="Group 39" transform="translate(71.653 46.949)"><path id="Path_157" data-name="Path 157" d="M107.9,71h1.2l1.063,3.32a2.052,2.052,0,0,1,.133.531h0a2.053,2.053,0,0,1,.133-.531L111.486,71h1.2v4.781h-.73V71.8h0a2.053,2.053,0,0,1-.133.531l-1.129,3.52h-.73l-1.129-3.52a1.563,1.563,0,0,1-.133-.531h0v3.984h-.73V71Z" transform="translate(-107.9 -70.801)" fill="#fff"></path><path id="Path_158" data-name="Path 158" d="M121.121,74.52h-1.859l-.4,1.262H118L119.793,71h.93l1.793,4.781h-.863Zm-.266-.664-.531-1.594a1.251,1.251,0,0,1-.133-.531h0c-.066.2-.066.332-.133.531l-.531,1.594Z" transform="translate(-111.293 -70.801)" fill="#fff"></path><path id="Path_159" data-name="Path 159" d="M128.827,73.523l-.664.73v1.527H127.3V71h.863v2.258L130.089,71h1.063l-1.727,1.926h0l1.859,2.855h-1Z" transform="translate(-114.417 -70.801)" fill="#fff"></path><path id="Path_160" data-name="Path 160" d="M139.121,75.051v.664H136V71h3.121v.664h-2.258v1.328h2.125v.664h-2.125v1.461h2.258Z" transform="translate(-117.34 -70.801)" fill="#fff"></path><path id="Path_161" data-name="Path 161" d="M147.794,73.922,146.2,71h.93l1,1.926c.066.133.133.2.133.332h0a1.122,1.122,0,0,1,.133-.332l1-1.926h.93l-1.594,2.922v1.793h-.863V73.922Z" transform="translate(-120.766 -70.801)" fill="#fff"></path><path id="Path_162" data-name="Path 162" d="M153.9,73.323a2.241,2.241,0,0,1,2.258-2.523c1.395,0,2.258.93,2.258,2.523a2.241,2.241,0,0,1-2.258,2.523A2.274,2.274,0,0,1,153.9,73.323Zm3.586,0c0-1.129-.531-1.793-1.328-1.793-.863,0-1.328.664-1.328,1.793s.531,1.793,1.328,1.793C157.021,75.116,157.486,74.386,157.486,73.323Z" transform="translate(-123.353 -70.734)" fill="#fff"></path><path id="Path_163" data-name="Path 163" d="M164.363,71v3.055a1.029,1.029,0,0,0,1.063,1.129,1,1,0,0,0,1.063-1.129V71h.863v3.121a1.931,1.931,0,0,1-3.852,0V71Z" transform="translate(-126.578 -70.801)" fill="#fff"></path><path id="Path_164" data-name="Path 164" d="M174.227,73.855h-.863v1.926H172.5V71h1.926c1.262,0,1.66.664,1.66,1.461a1.268,1.268,0,0,1-1,1.328l1.129,2.059h-.93Zm-.863-.664h.93c.664,0,.863-.332.863-.8a.754.754,0,0,0-.863-.8h-.93Z" transform="translate(-129.601 -70.801)" fill="#fff"></path><path id="Path_165" data-name="Path 165" d="M187.485,71.664h-1.461v4.051h-.863V71.664H183.7V71h3.785Z" transform="translate(-133.364 -70.801)" fill="#fff"></path><path id="Path_166" data-name="Path 166" d="M193.66,73.855H192.8v1.926H192V71h1.926c1.262,0,1.66.664,1.66,1.461a1.268,1.268,0,0,1-1,1.328l1.129,2.059h-.93Zm-.8-.664h.93c.664,0,.863-.332.863-.8a.754.754,0,0,0-.863-.8h-.93Z" transform="translate(-136.152 -70.801)" fill="#fff"></path><path id="Path_167" data-name="Path 167" d="M200.963,71v3.055a1.029,1.029,0,0,0,1.063,1.129,1,1,0,0,0,1.063-1.129V71h.863v3.121a1.931,1.931,0,0,1-3.852,0V71Z" transform="translate(-138.873 -70.801)" fill="#fff"></path><path id="Path_168" data-name="Path 168" d="M208.7,73.223a2.239,2.239,0,0,1,2.258-2.523,1.826,1.826,0,0,1,1.992,1.727l-.863.133a1.119,1.119,0,0,0-1.129-1.129c-.863,0-1.328.73-1.328,1.793s.465,1.793,1.328,1.793a1.147,1.147,0,0,0,1.129-1.063l.863.2a1.956,1.956,0,0,1-1.992,1.66A2.291,2.291,0,0,1,208.7,73.223Z" transform="translate(-141.762 -70.7)" fill="#fff"></path><path id="Path_169" data-name="Path 169" d="M219.461,73.523l-.664.73v1.527H218V71h.863v2.258L220.789,71h1.063l-1.727,1.926h0l1.859,2.855h-1Z" transform="translate(-144.886 -70.801)" fill="#fff"></path><path id="Path_170" data-name="Path 170" d="M230.2,71h.863v4.051h2.059v.73H230.2V71Z" transform="translate(-148.985 -70.801)" fill="#fff"></path><path id="Path_171" data-name="Path 171" d="M240.121,74.52h-1.859l-.4,1.262H237L238.793,71h.93l1.793,4.781h-.863Zm-.2-.664-.531-1.594a1.251,1.251,0,0,1-.133-.531h0c-.066.2-.066.332-.133.531l-.531,1.594Z" transform="translate(-151.269 -70.801)" fill="#fff"></path><path id="Path_172" data-name="Path 172" d="M245.5,74.452l.73-.332a1.238,1.238,0,0,0,1.262,1c.465,0,.93-.2.93-.664s-.266-.6-.8-.73l-.664-.133a1.336,1.336,0,0,1-1.262-1.395c0-.8.664-1.395,1.727-1.395a1.724,1.724,0,0,1,1.859,1.2l-.664.332a1.113,1.113,0,0,0-1.2-.863c-.531,0-.863.266-.863.664s.2.6.73.73l.664.133c.8.2,1.328.531,1.328,1.395,0,.8-.6,1.461-1.859,1.461A1.971,1.971,0,0,1,245.5,74.452Z" transform="translate(-154.124 -70.734)" fill="#fff"></path><path id="Path_173" data-name="Path 173" d="M256.985,71.664h-1.461v4.051h-.863V71.664H253.2V71h3.785Z" transform="translate(-156.711 -70.801)" fill="#fff"></path><path id="Path_174" data-name="Path 174" d="M265,71h.863v4.051h2.059v.73H265Z" transform="translate(-160.675 -70.801)" fill="#fff"></path><path id="Path_175" data-name="Path 175" d="M271.3,73.323a2.241,2.241,0,0,1,2.258-2.523c1.395,0,2.258.93,2.258,2.523a2.241,2.241,0,0,1-2.258,2.523A2.312,2.312,0,0,1,271.3,73.323Zm3.652,0c0-1.129-.531-1.793-1.328-1.793-.863,0-1.328.664-1.328,1.793s.531,1.793,1.328,1.793S274.952,74.386,274.952,73.323Z" transform="translate(-162.792 -70.734)" fill="#fff"></path><path id="Path_176" data-name="Path 176" d="M281,71h1l1.793,3.121a2.359,2.359,0,0,1,.266.6h0V71h.8v4.781h-1l-1.793-3.121a2.358,2.358,0,0,1-.266-.6h0v3.785H281Z" transform="translate(-166.05 -70.801)" fill="#fff"></path><path id="Path_177" data-name="Path 177" d="M289.8,73.323a2.274,2.274,0,0,1,2.258-2.523,1.758,1.758,0,0,1,1.926,1.461l-.863.133a1.051,1.051,0,0,0-1.129-.93c-.863,0-1.395.73-1.395,1.793s.465,1.793,1.395,1.793a1.147,1.147,0,0,0,1.2-1.262v-.066h-1.262v-.664h2.059v2.59h-.6l-.066-.73a1.448,1.448,0,0,1-1.461.863C290.6,75.78,289.8,74.784,289.8,73.323Z" transform="translate(-169.006 -70.734)" fill="#fff"></path><path id="Path_178" data-name="Path 178" d="M302.521,75.051v.664H299.4V71h3.121v.664h-2.258v1.328h2.125v.664h-2.125v1.461h2.258Z" transform="translate(-172.231 -70.801)" fill="#fff"></path><path id="Path_179" data-name="Path 179" d="M308.827,73.855h-.863v1.926H307.1V71h1.926c1.262,0,1.66.664,1.66,1.461a1.268,1.268,0,0,1-1,1.328l1.129,2.059h-.93Zm-.8-.664h.93c.664,0,.863-.332.863-.8a.754.754,0,0,0-.863-.8h-.93Z" transform="translate(-174.818 -70.801)" fill="#fff"></path></g></svg>