<svg xmlns="http://www.w3.org/2000/svg" width="84.545" height="62" viewBox="0 0 84.545 62"><g id="motor" transform="translate(0 -0.5)"><path id="Path_43" data-name="Path 43" d="M83.063,25.419a1.41,1.41,0,0,0-1.336-.964H76.091a1.409,1.409,0,0,0-1.409,1.409v7.045H71.864V21.637a1.409,1.409,0,0,0-1.409-1.409H59.182V13.182a1.409,1.409,0,0,0-1.409-1.409H47.909V8.955H66.227a1.409,1.409,0,0,0,1.409-1.409V1.909A1.409,1.409,0,0,0,66.227.5H21.136a1.409,1.409,0,0,0-1.409,1.409V7.546a1.409,1.409,0,0,0,1.409,1.409H39.455v2.818H29.591a1.409,1.409,0,0,0-1.409,1.409v7.7l-7.468,4.981H12.682a1.409,1.409,0,0,0-1.409,1.409V31.5H8.455V20.228a1.409,1.409,0,0,0-1.409-1.409H1.409A1.409,1.409,0,0,0,0,20.228V55.455a1.409,1.409,0,0,0,1.409,1.409H7.046a1.409,1.409,0,0,0,1.409-1.409V45.591h2.818v4.227a1.409,1.409,0,0,0,1.409,1.409h8.032l8.1,5.4a1.415,1.415,0,0,0,.777.237h2.818v4.227A1.409,1.409,0,0,0,33.818,62.5H53.545a1.409,1.409,0,0,0,1.409-1.409V56.864h15.5a1.409,1.409,0,0,0,1.409-1.409V44.182h2.818v7.045a1.409,1.409,0,0,0,1.409,1.409h5.636a1.41,1.41,0,0,0,1.336-.964l1.409-4.227A1.417,1.417,0,0,0,84.545,47V30.091a1.417,1.417,0,0,0-.073-.445ZM22.545,3.318H64.818V6.137H22.545ZM42.273,8.955h2.818v2.818H42.273ZM5.636,54.046H2.818V21.637H5.636ZM8.455,42.773V34.318h2.818v8.455Zm13.464,5.873a1.42,1.42,0,0,0-.782-.237H14.091V28.682h5.636v8.455a1.409,1.409,0,0,0,2.818,0v-9.11l7.828-5.214A1.409,1.409,0,0,0,31,21.637V14.591H56.364v5.636H42.273a1.409,1.409,0,1,0,0,2.818H63.409v31h-33.4ZM52.136,59.682H35.227V56.864H52.136Zm16.909-5.636H66.227v-31h2.818Zm2.818-12.682V35.728h2.818v5.636Zm9.864,5.408-1.016,3.047H77.5V27.273h3.211l1.016,3.047Zm0,0" fill="#fff"></path><path id="Path_44" data-name="Path 44" d="M193.409,115.318h1.409a1.409,1.409,0,1,0,0-2.818h-1.409a1.409,1.409,0,1,0,0,2.818Zm0,0" transform="translate(-158.182 -92.272)" fill="#fff"></path><path id="Path_45" data-name="Path 45" d="M113.409,232.5A1.409,1.409,0,0,0,112,233.909v1.409a1.409,1.409,0,1,0,2.818,0v-1.409A1.409,1.409,0,0,0,113.409,232.5Zm0,0" transform="translate(-92.273 -191.136)" fill="#fff"></path><path id="Path_46" data-name="Path 46" d="M145.409,163.318h32.409a1.409,1.409,0,0,0,0-2.818H145.409a1.409,1.409,0,1,0,0,2.818Zm0,0" transform="translate(-118.636 -131.818)" fill="#fff"></path><path id="Path_47" data-name="Path 47" d="M145.409,195.318h32.409a1.409,1.409,0,1,0,0-2.818H145.409a1.409,1.409,0,1,0,0,2.818Zm0,0" transform="translate(-118.636 -158.182)" fill="#fff"></path><path id="Path_48" data-name="Path 48" d="M145.409,227.318h32.409a1.409,1.409,0,0,0,0-2.818H145.409a1.409,1.409,0,1,0,0,2.818Zm0,0" transform="translate(-118.636 -184.545)" fill="#fff"></path><path id="Path_49" data-name="Path 49" d="M179.227,257.909a1.409,1.409,0,0,0-1.409-1.409H145.409a1.409,1.409,0,1,0,0,2.818h32.409A1.409,1.409,0,0,0,179.227,257.909Zm0,0" transform="translate(-118.636 -210.909)" fill="#fff"></path></g></svg>