<svg xmlns="http://www.w3.org/2000/svg" width="77.5" height="62" viewBox="0 0 77.5 62"><g id="oil" transform="translate(0 -48)"><g id="Group_7" data-name="Group 7" transform="translate(5.167 53.167)"><g id="Group_6" data-name="Group 6"><path id="Path_50" data-name="Path 50" d="M72.059,103.262,64.825,82.595A3.875,3.875,0,0,0,61.167,80H35.875A3.875,3.875,0,0,0,32,83.875v20.667a3.875,3.875,0,0,0,3.875,3.875H68.4a3.875,3.875,0,0,0,3.658-5.155Zm-2.6,2.028a1.277,1.277,0,0,1-1.054.544H35.875a1.292,1.292,0,0,1-1.292-1.292V83.875a1.292,1.292,0,0,1,1.292-1.292H61.167a1.292,1.292,0,0,1,1.219.864l7.233,20.667A1.282,1.282,0,0,1,69.458,105.29Z" transform="translate(-32 -80)" fill="#fff"></path></g></g><g id="Group_9" data-name="Group 9" transform="translate(24.542 58.333)"><g id="Group_8" data-name="Group 8"><rect id="Rectangle_19" data-name="Rectangle 19" width="2" height="13" transform="translate(0.458 -0.333)" fill="#fff"></rect></g></g><g id="Group_11" data-name="Group 11" transform="translate(24.542 73.833)"><g id="Group_10" data-name="Group 10" transform="translate(0 0)"><rect id="Rectangle_20" data-name="Rectangle 20" width="2" height="2" transform="translate(0.458 0.167)" fill="#fff"></rect></g></g><g id="Group_13" data-name="Group 13" transform="translate(19.375 67.375)"><g id="Group_12" data-name="Group 12"><rect id="Rectangle_21" data-name="Rectangle 21" width="3" height="9" transform="translate(-0.375 -0.375)" fill="#fff"></rect></g></g><g id="Group_15" data-name="Group 15" transform="translate(0 48)"><g id="Group_14" data-name="Group 14" transform="translate(0 0)"><path id="Path_51" data-name="Path 51" d="M67.167,72.618V71.25a1.292,1.292,0,0,0-1.292-1.292H59.53a1.291,1.291,0,0,1-1.085-.589L47.292,52.133A9.012,9.012,0,0,0,39.7,48H3.875A3.875,3.875,0,0,0,0,51.875v31A3.875,3.875,0,0,0,3.875,86.75h40.4a9.041,9.041,0,0,0,4.792-1.374l6.564-4.1a6.459,6.459,0,0,1,3.423-.982h6.819a3.875,3.875,0,0,1,3.875,3.875v24.542a1.292,1.292,0,0,0,2.583,0V84.167a6.47,6.47,0,0,0-5.167-6.329V75.228a9.042,9.042,0,0,1,7.75,8.938v24.542a1.292,1.292,0,0,0,2.583,0V84.167A11.638,11.638,0,0,0,67.167,72.618Zm-7.75,5.09h-.36a9.041,9.041,0,0,0-4.792,1.374l-6.564,4.1a6.459,6.459,0,0,1-3.423.982H3.875a1.292,1.292,0,0,1-1.292-1.292v-31a1.292,1.292,0,0,1,1.292-1.292H39.7a6.44,6.44,0,0,1,5.425,2.949L56.279,70.773a3.861,3.861,0,0,0,3.137,1.768Zm5.167,0H62V72.542h2.583Z" transform="translate(0 -48)" fill="#fff"></path></g></g><g id="Group_17" data-name="Group 17" transform="translate(19.375 58.333)"><g id="Group_16" data-name="Group 16"><rect id="Rectangle_22" data-name="Rectangle 22" width="3" height="7" transform="translate(-0.375 -0.333)" fill="#fff"></rect></g></g></g></svg>