<svg xmlns="http://www.w3.org/2000/svg" width="54" height="70.435" viewBox="0 0 54 70.435"><g id="tyre" transform="translate(0)"><path id="Path_52" data-name="Path 52" d="M27,0A27,27,0,0,0,4.951,42.578,7.057,7.057,0,0,0,0,49.3V63.391a7.05,7.05,0,0,0,7.043,7.043H46.957A7.051,7.051,0,0,0,54,63.391V49.3a7.058,7.058,0,0,0-4.951-6.726A27,27,0,0,0,27,0Zm0,2.348A24.643,24.643,0,0,1,46.351,42.261H37.9a18.783,18.783,0,1,0-21.8,0H7.642A24.643,24.643,0,0,1,27,2.348ZM20.925,42.261a16.435,16.435,0,1,1,12.15,0ZM51.652,57.522H2.348V55.174h49.3Zm-4.7,10.565H7.044a4.7,4.7,0,0,1-4.529-3.522H36.392a1.174,1.174,0,0,0,0-2.348H2.348V59.87h49.3v2.348H41.087a1.174,1.174,0,1,0,0,2.348h10.4a4.7,4.7,0,0,1-4.529,3.522Zm4.529-19.956H16.435a1.174,1.174,0,0,0,0,2.348H51.652v2.348H2.348V50.479h9.391a1.174,1.174,0,1,0,0-2.348H2.515a4.7,4.7,0,0,1,4.529-3.522H46.957a4.7,4.7,0,0,1,4.529,3.522Zm0,0" fill="#fff"></path><path id="Path_53" data-name="Path 53" d="M118.759,117.026a14.1,14.1,0,0,0,2.405-4.137v-.007c.018-.031.018-.065.033-.1a13.824,13.824,0,0,0,0-9.626c-.015-.032-.015-.066-.033-.1a14.108,14.108,0,0,0-10.826-8.96h-.012a13.131,13.131,0,0,0-4.7,0h-.012a14.108,14.108,0,0,0-10.825,8.96c-.018.031-.018.064-.033.1a13.83,13.83,0,0,0,0,9.626c.016.032.016.066.033.1v.007a14.091,14.091,0,0,0,2.405,4.137,1.194,1.194,0,0,0,.2.223,14.064,14.064,0,0,0,8.217,4.6h.012a13.132,13.132,0,0,0,4.7,0h.012a14.067,14.067,0,0,0,8.218-4.6,1.194,1.194,0,0,0,.2-.223ZM97.287,112.8l6-3.469.268.154a4.672,4.672,0,0,0,.907,1.563v.3l-5.994,3.47a11.7,11.7,0,0,1-1.176-2.026Zm-1.047-4.825a11.75,11.75,0,0,1,.286-2.548l4.409,2.548-4.414,2.549a11.749,11.749,0,0,1-.282-2.549Zm2.223-6.846,5.994,3.47v.3a4.669,4.669,0,0,0-.9,1.564l-.271.154-6-3.464A11.7,11.7,0,0,1,98.463,101.129Zm20.208,2.026-6,3.464-.268-.154a4.673,4.673,0,0,0-.906-1.564v-.3l5.994-3.47A11.721,11.721,0,0,1,118.671,103.156Zm1.047,4.82a11.788,11.788,0,0,1-.286,2.549l-4.41-2.549,4.414-2.548a11.781,11.781,0,0,1,.282,2.548Zm-14.087,0a2.348,2.348,0,1,1,2.348,2.348A2.348,2.348,0,0,1,105.631,107.975Zm5.87-6.09V96.778a11.727,11.727,0,0,1,4.4,2.562Zm-11.444-2.546a11.723,11.723,0,0,1,4.4-2.562v5.108Zm4.4,14.727v5.108a11.723,11.723,0,0,1-4.4-2.562Zm7.043-2.714v-.3a4.671,4.671,0,0,0,.9-1.563l.271-.154,6,3.464a11.723,11.723,0,0,1-1.174,2.026Zm4.4,5.26a11.727,11.727,0,0,1-4.4,2.562v-5.108ZM109.153,96.3v6.949l-.228.131a4.7,4.7,0,0,0-1.894,0l-.226-.131V96.3A11.58,11.58,0,0,1,109.153,96.3Zm-2.348,23.361v-6.951l.228-.132a4.7,4.7,0,0,0,1.893,0l.227.132v6.948a11.5,11.5,0,0,1-2.348,0Zm0,0" transform="translate(-80.978 -80.975)" fill="#fff"></path><path id="Path_54" data-name="Path 54" d="M60.906,58.176a1.175,1.175,0,0,0,.939-.47,21.936,21.936,0,0,1,6.971-5.732,1.174,1.174,0,1,0-1.121-2.062A24.254,24.254,0,0,0,59.967,56.3a1.174,1.174,0,0,0,.939,1.878Zm0,0" transform="translate(-51.515 -42.915)" fill="#fff"></path><path id="Path_55" data-name="Path 55" d="M147.414,35.307a1.174,1.174,0,1,1-1.174-1.174A1.174,1.174,0,0,1,147.414,35.307Zm0,0" transform="translate(-125.11 -29.437)" fill="#fff"></path></g></svg>